# 3ds Max Wavefront OBJ Exporter v0.99 - (c)2007 guruware
# File Created: 04.12.2023 22:15:25

mtllib fence.mtl

#
# object fence
#

v  0.0225 6.9086 -0.1379
v  0.0225 6.9086 -0.5265
v  -5.3443 6.9086 -0.5265
v  -5.3443 6.9086 -0.1379
v  0.0225 9.2049 -0.1379
v  -5.3443 9.2049 -0.1379
v  -5.3443 9.2049 -0.5265
v  0.0225 9.2049 -0.5265
v  -5.3890 1.0885 -2.2583
v  -5.3890 1.0885 -3.0278
v  -5.3890 0.1281 -3.0278
v  -5.3890 0.1281 -2.3213
v  -5.3890 2.0489 -2.1725
v  -5.3890 3.9697 -1.8508
v  -5.3890 3.9697 -2.4129
v  -5.3890 2.0489 -3.0278
v  -5.3890 5.4495 -1.3718
v  -5.3890 5.4495 -2.1187
v  -5.3890 7.1710 -0.3307
v  -5.3890 7.1710 -0.8929
v  -5.3890 6.5307 -0.8929
v  -5.3890 6.5307 -0.3307
v  -5.3890 7.1710 -1.0803
v  -5.3890 6.5307 -1.2677
v  -5.3890 7.8112 -0.3307
v  -5.3890 9.7320 -0.3307
v  -5.3890 9.7320 -0.8929
v  -5.3890 7.8112 -0.8929
v  -6.2605 0.1281 -3.0278
v  -6.2605 1.0885 -3.0278
v  -6.2605 1.0885 -2.2583
v  -6.2605 0.1281 -2.3213
v  -6.2605 2.0489 -2.1725
v  -6.2605 2.0489 -3.0278
v  -6.2605 3.9697 -2.4129
v  -6.2605 3.9697 -1.8508
v  -6.2605 5.4495 -2.1187
v  -6.2605 5.4495 -1.3718
v  -6.2605 7.1710 -0.8929
v  -6.2605 7.1710 -0.3307
v  -6.2605 6.5307 -0.3307
v  -6.2605 6.5307 -0.8929
v  -6.2605 7.1710 -1.0803
v  -6.2605 6.5307 -1.2677
v  -6.2605 7.8112 -0.3307
v  -6.2605 7.8112 -0.8929
v  -6.2605 9.7320 -0.8929
v  -6.2605 9.7320 -0.3307
v  -5.3890 2.5945 -0.8443
v  -6.2605 2.5945 -0.8443
v  -6.2605 2.0489 -1.3579
v  -5.3890 2.0489 -1.3579
v  -5.3890 5.8905 -0.8929
v  -6.2605 5.8905 -0.8929
v  -6.2605 5.8905 -0.3307
v  -5.3890 5.8905 -0.3307
v  -5.3890 1.0885 -1.4467
v  -5.3890 1.0885 -0.8887
v  -6.2605 1.0885 -0.8887
v  -6.2605 1.0885 -1.4467
v  -5.3890 2.5945 -0.3307
v  -6.2605 2.5945 -0.3307
v  -5.3890 1.0885 -0.3307
v  -6.2605 1.0885 -0.3307
v  -5.3890 5.8905 -1.8245
v  -6.2605 5.8905 -1.8245
v  -5.3890 1.0885 1.5970
v  -5.3890 0.1281 1.6599
v  -5.3890 0.1281 2.3664
v  -5.3890 1.0885 2.3664
v  -5.3890 2.0489 1.5112
v  -5.3890 2.0489 2.3664
v  -5.3890 3.9697 1.7516
v  -5.3890 3.9697 1.1894
v  -5.3890 5.4495 1.4574
v  -5.3890 5.4495 0.7104
v  -5.3890 6.5307 0.2315
v  -5.3890 7.1710 0.2315
v  -5.3890 6.5307 0.6063
v  -5.3890 7.1710 0.4189
v  -5.3890 7.8112 0.2315
v  -5.3890 9.7320 0.2315
v  -6.2605 0.1281 2.3664
v  -6.2605 0.1281 1.6599
v  -6.2605 1.0885 1.5970
v  -6.2605 1.0885 2.3664
v  -6.2605 2.0489 1.5112
v  -6.2605 3.9697 1.1894
v  -6.2605 3.9697 1.7516
v  -6.2605 2.0489 2.3664
v  -6.2605 5.4495 0.7104
v  -6.2605 5.4495 1.4574
v  -6.2605 7.1710 0.2315
v  -6.2605 6.5307 0.2315
v  -6.2605 7.1710 0.4189
v  -6.2605 6.5307 0.6063
v  -6.2605 9.7320 0.2315
v  -6.2605 7.8112 0.2315
v  -5.3890 2.5945 0.1829
v  -5.3890 2.0489 0.6965
v  -6.2605 2.0489 0.6965
v  -6.2605 2.5945 0.1829
v  -5.3890 5.8905 0.2315
v  -6.2605 5.8905 0.2315
v  -5.3890 1.0885 0.2273
v  -5.3890 1.0885 0.7853
v  -6.2605 1.0885 0.7853
v  -6.2605 1.0885 0.2273
v  -5.3890 5.8905 1.1632
v  -6.2605 5.8905 1.1632
v  5.3893 6.9086 -0.1379
v  5.3893 6.9086 -0.5265
v  5.3893 9.2049 -0.5265
v  5.3893 9.2049 -0.1379
v  5.4340 1.0885 -2.2583
v  5.4340 0.1281 -2.3213
v  5.4340 0.1281 -3.0278
v  5.4340 1.0885 -3.0278
v  5.4340 2.0489 -2.1725
v  5.4340 2.0489 -3.0278
v  5.4340 3.9697 -2.4129
v  5.4340 3.9697 -1.8508
v  5.4340 5.4495 -2.1187
v  5.4340 5.4495 -1.3718
v  5.4340 7.1710 -0.3307
v  5.4340 6.5307 -0.3307
v  5.4340 6.5307 -0.8929
v  5.4340 7.1710 -0.8929
v  5.4340 6.5307 -1.2677
v  5.4340 7.1710 -1.0803
v  5.4340 7.8112 -0.3307
v  5.4340 7.8112 -0.8929
v  5.4340 9.7320 -0.8929
v  5.4340 9.7320 -0.3307
v  6.3055 0.1281 -3.0278
v  6.3055 0.1281 -2.3213
v  6.3055 1.0885 -2.2583
v  6.3055 1.0885 -3.0278
v  6.3055 2.0489 -2.1725
v  6.3055 3.9697 -1.8508
v  6.3055 3.9697 -2.4129
v  6.3055 2.0489 -3.0278
v  6.3055 5.4495 -1.3718
v  6.3055 5.4495 -2.1187
v  6.3055 7.1710 -0.8929
v  6.3055 6.5307 -0.8929
v  6.3055 6.5307 -0.3307
v  6.3055 7.1710 -0.3307
v  6.3055 7.1710 -1.0803
v  6.3055 6.5307 -1.2677
v  6.3055 7.8112 -0.3307
v  6.3055 9.7320 -0.3307
v  6.3055 9.7320 -0.8929
v  6.3055 7.8112 -0.8929
v  5.4340 2.5945 -0.8443
v  5.4340 2.0489 -1.3579
v  6.3055 2.0489 -1.3579
v  6.3055 2.5945 -0.8443
v  5.4340 5.8905 -0.8929
v  5.4340 5.8905 -0.3307
v  6.3055 5.8905 -0.3307
v  6.3055 5.8905 -0.8929
v  5.4340 1.0885 -0.8887
v  5.4340 1.0885 -1.4467
v  6.3055 1.0885 -1.4467
v  6.3055 1.0885 -0.8887
v  5.4340 2.5945 -0.3307
v  6.3055 2.5945 -0.3307
v  5.4340 1.0885 -0.3307
v  6.3055 1.0885 -0.3307
v  5.4340 5.8905 -1.8245
v  6.3055 5.8905 -1.8245
v  5.4340 1.0885 1.5970
v  5.4340 1.0885 2.3664
v  5.4340 0.1281 2.3664
v  5.4340 0.1281 1.6599
v  5.4340 2.0489 1.5112
v  5.4340 3.9697 1.1894
v  5.4340 3.9697 1.7516
v  5.4340 2.0489 2.3664
v  5.4340 5.4495 0.7104
v  5.4340 5.4495 1.4574
v  5.4340 7.1710 0.2315
v  5.4340 6.5307 0.2315
v  5.4340 7.1710 0.4189
v  5.4340 6.5307 0.6063
v  5.4340 9.7320 0.2315
v  5.4340 7.8112 0.2315
v  6.3055 0.1281 2.3664
v  6.3055 1.0885 2.3664
v  6.3055 1.0885 1.5970
v  6.3055 0.1281 1.6599
v  6.3055 2.0489 1.5112
v  6.3055 2.0489 2.3664
v  6.3055 3.9697 1.7516
v  6.3055 3.9697 1.1894
v  6.3055 5.4495 1.4574
v  6.3055 5.4495 0.7104
v  6.3055 7.1710 0.2315
v  6.3055 6.5307 0.2315
v  6.3055 7.1710 0.4189
v  6.3055 6.5307 0.6063
v  6.3055 7.8112 0.2315
v  6.3055 9.7320 0.2315
v  5.4340 2.5945 0.1829
v  6.3055 2.5945 0.1829
v  6.3055 2.0489 0.6965
v  5.4340 2.0489 0.6965
v  5.4340 5.8905 0.2315
v  6.3055 5.8905 0.2315
v  5.4340 1.0885 0.7853
v  5.4340 1.0885 0.2273
v  6.3055 1.0885 0.2273
v  6.3055 1.0885 0.7853
v  5.4340 5.8905 1.1632
v  6.3055 5.8905 1.1632
# 216 vertices

vn 0.0000 -1.0000 -0.0000
vn 0.0000 1.0000 -0.0000
vn -0.0000 -0.0000 1.0000
vn 0.0000 0.0000 1.0000
vn -1.0000 0.0000 -0.0000
vn 0.0000 0.0000 -1.0000
vn 1.0000 0.0000 -0.0000
vn 0.0000 -0.0000 -1.0000
vn 0.0000 0.4088 -0.9126
vn 0.0000 0.6633 -0.7484
vn 0.0000 0.7753 -0.6316
vn 0.0000 0.7157 -0.6984
vn 0.0000 0.8550 -0.5186
vn 0.0000 0.3883 -0.9215
vn -0.0000 0.9569 -0.2903
vn 0.0000 0.9569 -0.2903
vn 0.0000 -0.5059 0.8626
vn -0.0000 -0.5059 0.8626
vn -0.0000 -0.7498 0.6617
vn -0.0000 -0.2237 0.9747
vn 0.0000 0.9356 -0.3531
vn 0.0000 -0.9671 0.2543
vn -0.0000 -0.9671 0.2543
vn 0.0000 -0.0000 1.0000
vn 0.0000 0.4088 0.9126
vn 0.0000 0.6633 0.7484
vn 0.0000 0.7753 0.6316
vn 0.0000 0.7157 0.6984
vn 0.0000 0.8550 0.5186
vn -0.0000 0.3883 0.9215
vn -0.0000 0.0000 1.0000
vn -0.0000 0.9569 0.2903
vn -0.0000 -0.5059 -0.8626
vn 0.0000 -0.5059 -0.8626
vn -0.0000 -0.7498 -0.6617
vn -0.0000 -0.2237 -0.9747
vn 0.0000 0.9356 0.3531
vn -0.0000 -0.9671 -0.2543
vn 0.0000 -0.9671 -0.2543
vn -0.0000 0.0000 -1.0000
vn -0.0000 0.4088 -0.9126
vn -0.0000 0.6633 -0.7484
vn -0.0000 0.7753 -0.6316
vn -0.0000 0.7157 -0.6984
vn -0.0000 0.8550 -0.5186
vn -0.0000 0.3883 -0.9215
vn 0.0000 -0.7498 0.6617
vn -0.0000 -1.0000 -0.0000
vn 0.0000 -0.2237 0.9747
vn -0.0000 0.9356 -0.3531
vn -0.0000 0.4088 0.9126
vn -0.0000 0.6633 0.7484
vn -0.0000 0.7753 0.6316
vn -0.0000 0.7157 0.6984
vn -0.0000 0.8550 0.5186
vn 0.0000 0.3883 0.9215
vn 0.0000 0.9569 0.2903
vn 0.0000 -0.7498 -0.6617
vn 0.0000 -0.2237 -0.9747
vn -0.0000 0.9356 0.3531
# 60 vertex normals

vt 0.5000 0.0000 0.0000
vt 0.5000 1.0000 0.0000
vt 0.0000 1.0000 0.0000
vt 0.0000 0.0000 0.0000
vt 1.0000 0.0000 0.0000
vt 1.0000 1.0000 0.0000
vt 0.2500 0.1000 0.0000
vt 0.0000 0.1000 0.0000
vt 0.2500 0.0000 0.0000
vt 0.2500 0.2000 0.0000
vt 0.2500 0.4000 0.0000
vt 0.0000 0.4000 0.0000
vt 0.0000 0.2000 0.0000
vt 0.2500 0.5000 0.0000
vt 0.0000 0.5000 0.0000
vt 0.5000 0.7333 0.0000
vt 0.2500 0.7333 0.0000
vt 0.2500 0.6667 0.0000
vt 0.5000 0.6667 0.0000
vt 0.1667 0.7333 0.0000
vt 0.0833 0.6667 0.0000
vt 0.5000 0.8000 0.0000
vt 0.2500 1.0000 0.0000
vt 0.2500 0.8000 0.0000
vt 1.0000 0.1000 0.0000
vt 0.7500 0.1000 0.0000
vt 0.7500 0.0000 0.0000
vt 0.7500 0.2000 0.0000
vt 1.0000 0.2000 0.0000
vt 1.0000 0.4000 0.0000
vt 0.7500 0.4000 0.0000
vt 1.0000 0.5000 0.0000
vt 0.7500 0.5000 0.0000
vt 0.9167 0.7333 0.0000
vt 0.8333 0.6667 0.0000
vt 1.0000 0.7333 0.0000
vt 1.0000 0.6667 0.0000
vt 1.0000 0.8000 0.0000
vt 0.7500 1.0000 0.0000
vt 0.1000 0.0000 0.0000
vt 0.1000 1.0000 0.0000
vt 0.2000 0.0000 0.0000
vt 0.4000 0.0000 0.0000
vt 0.4000 1.0000 0.0000
vt 0.2000 1.0000 0.0000
vt 0.7333 0.0000 0.0000
vt 0.7333 1.0000 0.0000
vt 0.6667 1.0000 0.0000
vt 0.6667 0.0000 0.0000
vt 0.8000 0.0000 0.0000
vt 0.8000 1.0000 0.0000
vt 0.4167 0.2000 0.0000
vt 0.5833 0.2000 0.0000
vt 0.6667 0.2000 0.0000
vt 0.3333 0.2000 0.0000
vt 0.2500 0.6000 0.0000
vt 0.7500 0.6000 0.0000
vt 0.5000 0.6000 0.0000
vt 0.3333 0.0667 0.0000
vt 0.4167 0.0333 0.0000
vt 0.5833 0.1000 0.0000
vt 0.6667 0.1000 0.0000
vt 0.5000 0.2000 0.0000
vt 0.5000 0.1000 0.0000
vt 0.0000 0.6000 0.0000
vt 1.0000 0.6000 0.0000
vt 0.6000 1.0000 0.0000
vt 0.6000 0.0000 0.0000
# 68 texture coords

o fence
g fence
usemtl wire_115115115
s 2
f 3/3/1 2/2/1 1/1/1 
f 1/1/1 4/4/1 3/3/1 
s 4
f 7/6/2 6/5/2 5/1/2 
f 5/1/2 8/2/2 7/6/2 
s 8
f 6/6/3 4/5/4 1/1/3 
f 1/1/3 5/2/3 6/6/3 
s 16
f 7/6/5 3/5/5 4/4/5 
f 4/4/5 6/3/5 7/6/5 
s 32
f 8/2/6 2/1/6 3/4/6 
f 3/4/6 7/3/6 8/2/6 
s 2
f 11/4/7 10/8/7 9/7/7 
f 9/7/7 12/9/7 11/4/7 
f 15/12/7 14/11/7 13/10/7 
f 13/10/7 16/13/7 15/12/7 
f 18/15/7 17/14/7 14/11/7 
f 14/11/7 15/12/7 18/15/7 
f 21/18/7 20/17/7 19/16/7 
f 19/16/7 22/19/7 21/18/7 
f 23/20/7 20/17/7 21/18/7 
f 21/18/7 24/21/7 23/20/7 
f 27/23/7 26/2/7 25/22/7 
f 25/22/7 28/24/7 27/23/7 
s 4
f 31/26/5 30/25/5 29/5/5 
f 29/5/5 32/27/5 31/26/5 
f 35/30/5 34/29/5 33/28/5 
f 33/28/5 36/31/5 35/30/5 
f 37/32/5 35/30/5 36/31/5 
f 36/31/5 38/33/5 37/32/5 
f 41/19/5 40/16/5 39/34/5 
f 39/34/5 42/35/5 41/19/5 
f 42/35/5 39/34/5 43/36/5 
f 43/36/5 44/37/5 42/35/5 
f 47/6/5 46/38/5 45/22/5 
f 45/22/5 48/2/5 47/6/5 
s 8
f 29/6/1 11/5/1 12/27/1 
f 12/27/1 32/39/1 29/6/1 
s 16
f 29/3/8 30/41/8 10/40/8 
f 10/40/8 11/4/8 29/3/8 
f 35/44/10 15/43/10 16/42/9 
f 16/42/9 34/45/9 35/44/10 
f 35/44/10 37/2/11 18/1/11 
f 18/1/11 15/43/10 35/44/10 
f 44/48/13 43/47/12 23/46/12 
f 23/46/12 24/49/13 44/48/13 
f 47/6/6 27/5/6 28/50/14 
f 28/50/14 46/51/14 47/6/6 
s 32
f 48/2/2 26/1/2 27/9/2 
f 27/9/2 47/3/2 48/2/2 
s off
f 51/54/15 50/53/15 49/52/15 
f 49/52/16 52/55/16 51/54/16 
f 36/31/17 33/28/17 13/10/17 
f 13/10/18 14/11/18 36/31/18 
f 14/11/19 17/14/19 38/33/19 
f 38/33/19 36/31/19 14/11/19 
f 55/58/1 54/57/1 53/56/1 
f 53/56/1 56/58/1 55/58/1 
s 2
f 58/60/7 57/59/7 52/55/7 
f 52/55/7 49/52/7 58/60/7 
f 10/8/7 16/13/7 13/10/7 
f 13/10/7 9/7/7 10/8/7 
s 4
f 59/61/5 50/53/5 51/54/5 
f 51/54/5 60/62/5 59/61/5 
f 31/26/5 33/28/5 34/29/5 
f 34/29/5 30/25/5 31/26/5 
s 16
f 30/41/8 34/45/9 16/42/9 
f 16/42/9 10/40/8 30/41/8 
s off
f 57/59/1 58/60/1 59/61/1 
f 59/61/1 60/62/1 57/59/1 
f 12/9/20 9/7/20 31/26/20 
f 31/26/20 32/39/20 12/9/20 
f 50/53/2 62/63/2 61/63/2 
f 61/63/2 49/52/2 50/53/2 
f 52/55/2 13/10/2 33/28/2 
f 33/28/2 51/54/2 52/55/2 
s 2
f 57/59/7 9/7/7 13/10/7 
f 13/10/7 52/55/7 57/59/7 
f 49/52/7 61/63/7 63/1/7 
f 63/1/7 58/60/7 49/52/7 
s 4
f 64/64/5 62/63/5 50/53/5 
f 50/53/5 59/61/5 64/64/5 
f 33/28/5 31/26/5 60/62/5 
f 60/62/5 51/54/5 33/28/5 
s off
f 58/60/1 63/1/1 64/64/1 
f 64/64/1 59/61/1 58/60/1 
f 60/62/1 31/26/1 9/7/1 
f 9/7/1 57/59/1 60/62/1 
s 2
f 20/17/7 28/24/7 25/22/7 
f 25/22/7 19/16/7 20/17/7 
f 22/19/7 56/58/7 53/56/7 
f 53/56/7 21/18/7 22/19/7 
f 23/20/7 28/24/7 20/17/7 
f 53/56/7 65/65/7 24/21/7 
f 24/21/7 21/18/7 53/56/7 
s 4
f 40/16/5 45/22/5 46/38/5 
f 46/38/5 39/34/5 40/16/5 
f 42/35/5 54/57/5 55/58/5 
f 55/58/5 41/19/5 42/35/5 
f 39/34/5 46/38/5 43/36/5 
f 44/37/5 66/66/5 54/57/5 
f 54/57/5 42/35/5 44/37/5 
s 16
f 43/47/12 46/51/14 28/50/14 
f 28/50/14 23/46/12 43/47/12 
f 24/49/13 65/68/21 66/67/21 
f 66/67/21 44/48/13 24/49/13 
s 2
f 65/65/7 53/56/7 17/14/7 
f 17/14/7 18/15/7 65/65/7 
s 4
f 38/33/5 54/57/5 66/66/5 
f 66/66/5 37/32/5 38/33/5 
s 16
f 37/2/11 66/67/21 65/68/21 
f 65/68/21 18/1/11 37/2/11 
s off
f 17/14/22 53/56/22 54/57/22 
f 54/57/23 38/33/23 17/14/23 
s 2
f 69/4/7 68/9/7 67/7/7 
f 67/7/7 70/8/7 69/4/7 
f 73/12/7 72/13/7 71/10/7 
f 71/10/7 74/11/7 73/12/7 
f 75/15/7 73/12/7 74/11/7 
f 74/11/7 76/14/7 75/15/7 
f 77/18/7 22/19/7 19/16/7 
f 19/16/7 78/17/7 77/18/7 
f 80/20/7 79/21/7 77/18/7 
f 77/18/7 78/17/7 80/20/7 
f 82/23/7 81/24/7 25/22/7 
f 25/22/7 26/2/7 82/23/7 
s 4
f 85/26/5 84/27/5 83/5/5 
f 83/5/5 86/25/5 85/26/5 
f 89/30/5 88/31/5 87/28/5 
f 87/28/5 90/29/5 89/30/5 
f 92/32/5 91/33/5 88/31/5 
f 88/31/5 89/30/5 92/32/5 
f 41/19/5 94/35/5 93/34/5 
f 93/34/5 40/16/5 41/19/5 
f 94/35/5 96/37/5 95/36/5 
f 95/36/5 93/34/5 94/35/5 
f 97/6/5 48/2/5 45/22/5 
f 45/22/5 98/38/5 97/6/5 
s 8
f 83/6/1 84/39/1 68/27/1 
f 68/27/1 69/5/1 83/6/1 
s 16
f 83/3/24 69/4/24 70/40/24 
f 70/40/24 86/41/24 83/3/24 
f 89/44/26 90/45/25 72/42/25 
f 72/42/25 73/43/26 89/44/26 
f 89/44/26 73/43/26 75/1/27 
f 75/1/27 92/2/27 89/44/26 
f 96/48/29 79/49/29 80/46/28 
f 80/46/28 95/47/28 96/48/29 
f 97/6/31 98/51/30 81/50/30 
f 81/50/30 82/5/31 97/6/31 
s 32
f 48/2/2 97/3/2 82/9/2 
f 82/9/2 26/1/2 48/2/2 
s off
f 101/54/32 100/55/32 99/52/32 
f 99/52/32 102/53/32 101/54/32 
f 88/31/33 74/11/33 71/10/33 
f 71/10/34 87/28/34 88/31/34 
f 74/11/35 88/31/35 91/33/35 
f 91/33/35 76/14/35 74/11/35 
f 55/58/1 56/58/1 103/56/1 
f 103/56/1 104/57/1 55/58/1 
s 2
f 105/60/7 99/52/7 100/55/7 
f 100/55/7 106/59/7 105/60/7 
f 70/8/7 67/7/7 71/10/7 
f 71/10/7 72/13/7 70/8/7 
s 4
f 108/61/5 107/62/5 101/54/5 
f 101/54/5 102/53/5 108/61/5 
f 85/26/5 86/25/5 90/29/5 
f 90/29/5 87/28/5 85/26/5 
s 16
f 86/41/24 70/40/24 72/42/25 
f 72/42/25 90/45/25 86/41/24 
s off
f 106/59/1 107/62/1 108/61/1 
f 108/61/1 105/60/1 106/59/1 
f 68/9/36 84/39/36 85/26/36 
f 85/26/36 67/7/36 68/9/36 
f 102/53/2 99/52/2 61/63/2 
f 61/63/2 62/63/2 102/53/2 
f 100/55/2 101/54/2 87/28/2 
f 87/28/2 71/10/2 100/55/2 
s 2
f 106/59/7 100/55/7 71/10/7 
f 71/10/7 67/7/7 106/59/7 
f 99/52/7 105/60/7 63/1/7 
f 63/1/7 61/63/7 99/52/7 
s 4
f 64/64/5 108/61/5 102/53/5 
f 102/53/5 62/63/5 64/64/5 
f 87/28/5 101/54/5 107/62/5 
f 107/62/5 85/26/5 87/28/5 
s off
f 105/60/1 108/61/1 64/64/1 
f 64/64/1 63/1/1 105/60/1 
f 107/62/1 106/59/1 67/7/1 
f 67/7/1 85/26/1 107/62/1 
s 2
f 78/17/7 19/16/7 25/22/7 
f 25/22/7 81/24/7 78/17/7 
f 22/19/7 77/18/7 103/56/7 
f 103/56/7 56/58/7 22/19/7 
f 81/24/7 80/20/7 78/17/7 
f 103/56/7 77/18/7 79/21/7 
f 79/21/7 109/65/7 103/56/7 
s 4
f 40/16/5 93/34/5 98/38/5 
f 98/38/5 45/22/5 40/16/5 
f 94/35/5 41/19/5 55/58/5 
f 55/58/5 104/57/5 94/35/5 
f 98/38/5 93/34/5 95/36/5 
f 96/37/5 94/35/5 104/57/5 
f 104/57/5 110/66/5 96/37/5 
s 16
f 95/47/28 80/46/28 81/50/30 
f 81/50/30 98/51/30 95/47/28 
f 79/49/29 96/48/29 110/67/37 
f 110/67/37 109/68/37 79/49/29 
s 2
f 109/65/7 75/15/7 76/14/7 
f 76/14/7 103/56/7 109/65/7 
s 4
f 91/33/5 92/32/5 110/66/5 
f 110/66/5 104/57/5 91/33/5 
s 16
f 92/2/27 75/1/27 109/68/37 
f 109/68/37 110/67/37 92/2/27 
s off
f 76/14/38 91/33/38 104/57/38 
f 104/57/39 103/56/39 76/14/39 
s 2
f 112/3/1 111/4/1 1/1/1 
f 1/1/1 2/2/1 112/3/1 
s 4
f 113/6/2 8/2/2 5/1/2 
f 5/1/2 114/5/2 113/6/2 
s 8
f 114/6/24 5/2/24 1/1/24 
f 1/1/24 111/5/4 114/6/24 
s 16
f 113/6/7 114/3/7 111/4/7 
f 111/4/7 112/5/7 113/6/7 
s 32
f 8/2/40 113/3/40 112/4/40 
f 112/4/40 2/1/6 8/2/40 
s 2
f 117/4/5 116/9/5 115/7/5 
f 115/7/5 118/8/5 117/4/5 
f 121/12/5 120/13/5 119/10/5 
f 119/10/5 122/11/5 121/12/5 
f 123/15/5 121/12/5 122/11/5 
f 122/11/5 124/14/5 123/15/5 
f 127/18/5 126/19/5 125/16/5 
f 125/16/5 128/17/5 127/18/5 
f 130/20/5 129/21/5 127/18/5 
f 127/18/5 128/17/5 130/20/5 
f 133/23/5 132/24/5 131/22/5 
f 131/22/5 134/2/5 133/23/5 
s 4
f 137/26/7 136/27/7 135/5/7 
f 135/5/7 138/25/7 137/26/7 
f 141/30/7 140/31/7 139/28/7 
f 139/28/7 142/29/7 141/30/7 
f 144/32/7 143/33/7 140/31/7 
f 140/31/7 141/30/7 144/32/7 
f 147/19/7 146/35/7 145/34/7 
f 145/34/7 148/16/7 147/19/7 
f 146/35/7 150/37/7 149/36/7 
f 149/36/7 145/34/7 146/35/7 
f 153/6/7 152/2/7 151/22/7 
f 151/22/7 154/38/7 153/6/7 
s 8
f 135/6/1 136/39/1 116/27/1 
f 116/27/1 117/5/1 135/6/1 
s 16
f 135/3/8 117/4/8 118/40/8 
f 118/40/8 138/41/8 135/3/8 
f 141/44/42 142/45/9 120/42/41 
f 120/42/41 121/43/42 141/44/42 
f 141/44/42 121/43/42 123/1/43 
f 123/1/43 144/2/43 141/44/42 
f 150/48/45 129/49/45 130/46/44 
f 130/46/44 149/47/44 150/48/45 
f 153/6/40 154/51/46 132/50/46 
f 132/50/46 133/5/40 153/6/40 
s 32
f 152/2/2 153/3/2 133/9/2 
f 133/9/2 134/1/2 152/2/2 
s off
f 157/54/16 156/55/16 155/52/16 
f 155/52/16 158/53/16 157/54/16 
f 140/31/17 122/11/17 119/10/17 
f 119/10/17 139/28/17 140/31/17 
f 122/11/47 140/31/47 143/33/47 
f 143/33/47 124/14/47 122/11/47 
f 161/58/48 160/58/48 159/56/48 
f 159/56/48 162/57/48 161/58/48 
s 2
f 163/60/5 155/52/5 156/55/5 
f 156/55/5 164/59/5 163/60/5 
f 118/8/5 115/7/5 119/10/5 
f 119/10/5 120/13/5 118/8/5 
s 4
f 166/61/7 165/62/7 157/54/7 
f 157/54/7 158/53/7 166/61/7 
f 137/26/7 138/25/7 142/29/7 
f 142/29/7 139/28/7 137/26/7 
s 16
f 138/41/8 118/40/8 120/42/41 
f 120/42/41 142/45/9 138/41/8 
s off
f 164/59/1 165/62/1 166/61/1 
f 166/61/1 163/60/1 164/59/1 
f 116/9/49 136/39/49 137/26/49 
f 137/26/49 115/7/49 116/9/49 
f 158/53/2 155/52/2 167/63/2 
f 167/63/2 168/63/2 158/53/2 
f 156/55/2 157/54/2 139/28/2 
f 139/28/2 119/10/2 156/55/2 
s 2
f 164/59/5 156/55/5 119/10/5 
f 119/10/5 115/7/5 164/59/5 
f 155/52/5 163/60/5 169/1/5 
f 169/1/5 167/63/5 155/52/5 
s 4
f 170/64/7 166/61/7 158/53/7 
f 158/53/7 168/63/7 170/64/7 
f 139/28/7 157/54/7 165/62/7 
f 165/62/7 137/26/7 139/28/7 
s off
f 163/60/1 166/61/1 170/64/1 
f 170/64/1 169/1/1 163/60/1 
f 165/62/1 164/59/1 115/7/1 
f 115/7/1 137/26/1 165/62/1 
s 2
f 128/17/5 125/16/5 131/22/5 
f 131/22/5 132/24/5 128/17/5 
f 126/19/5 127/18/5 159/56/5 
f 159/56/5 160/58/5 126/19/5 
f 132/24/5 130/20/5 128/17/5 
f 159/56/5 127/18/5 129/21/5 
f 129/21/5 171/65/5 159/56/5 
s 4
f 148/16/7 145/34/7 154/38/7 
f 154/38/7 151/22/7 148/16/7 
f 146/35/7 147/19/7 161/58/7 
f 161/58/7 162/57/7 146/35/7 
f 154/38/7 145/34/7 149/36/7 
f 150/37/7 146/35/7 162/57/7 
f 162/57/7 172/66/7 150/37/7 
s 16
f 149/47/44 130/46/44 132/50/46 
f 132/50/46 154/51/46 149/47/44 
f 129/49/45 150/48/45 172/67/50 
f 172/67/50 171/68/50 129/49/45 
s 2
f 171/65/5 123/15/5 124/14/5 
f 124/14/5 159/56/5 171/65/5 
s 4
f 143/33/7 144/32/7 172/66/7 
f 172/66/7 162/57/7 143/33/7 
s 16
f 144/2/43 123/1/43 171/68/50 
f 171/68/50 172/67/50 144/2/43 
s off
f 124/14/22 143/33/22 162/57/22 
f 162/57/23 159/56/23 124/14/23 
s 2
f 175/4/5 174/8/5 173/7/5 
f 173/7/5 176/9/5 175/4/5 
f 179/12/5 178/11/5 177/10/5 
f 177/10/5 180/13/5 179/12/5 
f 182/15/5 181/14/5 178/11/5 
f 178/11/5 179/12/5 182/15/5 
f 184/18/5 183/17/5 125/16/5 
f 125/16/5 126/19/5 184/18/5 
f 185/20/5 183/17/5 184/18/5 
f 184/18/5 186/21/5 185/20/5 
f 187/23/5 134/2/5 131/22/5 
f 131/22/5 188/24/5 187/23/5 
s 4
f 191/26/7 190/25/7 189/5/7 
f 189/5/7 192/27/7 191/26/7 
f 195/30/7 194/29/7 193/28/7 
f 193/28/7 196/31/7 195/30/7 
f 197/32/7 195/30/7 196/31/7 
f 196/31/7 198/33/7 197/32/7 
f 147/19/7 148/16/7 199/34/7 
f 199/34/7 200/35/7 147/19/7 
f 200/35/7 199/34/7 201/36/7 
f 201/36/7 202/37/7 200/35/7 
f 204/6/7 203/38/7 151/22/7 
f 151/22/7 152/2/7 204/6/7 
s 8
f 189/6/1 175/5/1 176/27/1 
f 176/27/1 192/39/1 189/6/1 
s 16
f 189/3/24 190/41/24 174/40/24 
f 174/40/24 175/4/24 189/3/24 
f 195/44/52 179/43/52 180/42/51 
f 180/42/51 194/45/25 195/44/52 
f 195/44/52 197/2/53 182/1/53 
f 182/1/53 179/43/52 195/44/52 
f 202/48/55 201/47/54 185/46/54 
f 185/46/54 186/49/29 202/48/55 
f 204/6/4 187/5/4 188/50/56 
f 188/50/56 203/51/56 204/6/4 
s 32
f 152/2/2 134/1/2 187/9/2 
f 187/9/2 204/3/2 152/2/2 
s off
f 207/54/57 206/53/57 205/52/57 
f 205/52/57 208/55/57 207/54/57 
f 196/31/34 193/28/34 177/10/34 
f 177/10/34 178/11/34 196/31/34 
f 178/11/58 181/14/58 198/33/58 
f 198/33/58 196/31/58 178/11/58 
f 161/58/48 210/57/48 209/56/48 
f 209/56/48 160/58/48 161/58/48 
s 2
f 212/60/5 211/59/5 208/55/5 
f 208/55/5 205/52/5 212/60/5 
f 174/8/5 180/13/5 177/10/5 
f 177/10/5 173/7/5 174/8/5 
s 4
f 213/61/7 206/53/7 207/54/7 
f 207/54/7 214/62/7 213/61/7 
f 191/26/7 193/28/7 194/29/7 
f 194/29/7 190/25/7 191/26/7 
s 16
f 190/41/24 194/45/25 180/42/51 
f 180/42/51 174/40/24 190/41/24 
s off
f 211/59/1 212/60/1 213/61/1 
f 213/61/1 214/62/1 211/59/1 
f 176/9/59 173/7/59 191/26/59 
f 191/26/59 192/39/59 176/9/59 
f 206/53/2 168/63/2 167/63/2 
f 167/63/2 205/52/2 206/53/2 
f 208/55/2 177/10/2 193/28/2 
f 193/28/2 207/54/2 208/55/2 
s 2
f 211/59/5 173/7/5 177/10/5 
f 177/10/5 208/55/5 211/59/5 
f 205/52/5 167/63/5 169/1/5 
f 169/1/5 212/60/5 205/52/5 
s 4
f 170/64/7 168/63/7 206/53/7 
f 206/53/7 213/61/7 170/64/7 
f 193/28/7 191/26/7 214/62/7 
f 214/62/7 207/54/7 193/28/7 
s off
f 212/60/1 169/1/1 170/64/1 
f 170/64/1 213/61/1 212/60/1 
f 214/62/1 191/26/1 173/7/1 
f 173/7/1 211/59/1 214/62/1 
s 2
f 183/17/5 188/24/5 131/22/5 
f 131/22/5 125/16/5 183/17/5 
f 126/19/5 160/58/5 209/56/5 
f 209/56/5 184/18/5 126/19/5 
f 185/20/5 188/24/5 183/17/5 
f 209/56/5 215/65/5 186/21/5 
f 186/21/5 184/18/5 209/56/5 
s 4
f 148/16/7 151/22/7 203/38/7 
f 203/38/7 199/34/7 148/16/7 
f 200/35/7 210/57/7 161/58/7 
f 161/58/7 147/19/7 200/35/7 
f 199/34/7 203/38/7 201/36/7 
f 202/37/7 216/66/7 210/57/7 
f 210/57/7 200/35/7 202/37/7 
s 16
f 201/47/54 203/51/56 188/50/56 
f 188/50/56 185/46/54 201/47/54 
f 186/49/29 215/68/60 216/67/37 
f 216/67/37 202/48/55 186/49/29 
s 2
f 215/65/5 209/56/5 181/14/5 
f 181/14/5 182/15/5 215/65/5 
s 4
f 198/33/7 210/57/7 216/66/7 
f 216/66/7 197/32/7 198/33/7 
s 16
f 197/2/53 216/67/37 215/68/60 
f 215/68/60 182/1/53 197/2/53 
s off
f 181/14/38 209/56/38 210/57/38 
f 210/57/39 198/33/39 181/14/39 
# 428 faces

